<svg version="1.1" xmlns="http://www.w3.org/2000/svg" xmlns:xlink="http://www.w3.org/1999/xlink" role="img" width="346" height="90" viewbox="0 0 346 90"><title>LinuxGuide</title><desc>Generated by logo.svg, https://github.com/bubkoo/logo.svg</desc><path fill="#2b68a7" d="M-0.28 70.35L0.30 67.66L1.13 67.66Q3.24 67.66 4.94 66.86Q6.63 66.06 7.27 63.06L13.93 31.70Q14.18 30.67 14.18 29.90Q14.18 28.24 12.90 27.79Q11.62 27.34 9.58 27.34L8.74 27.34L9.32 24.66L27.94 24.66L27.37 27.34L26.54 27.34Q24.42 27.34 22.73 28.08Q21.03 28.82 20.39 31.70L12.84 67.15L25.45 67.15Q28.39 67.15 29.99 65.30Q31.59 63.44 32.30 61.39L33.96 56.59L37.29 56.59L33.96 70.35L-0.28 70.35ZM55.21 29.65Q53.61 29.65 52.62 28.78Q51.62 27.92 51.62 26.13Q51.62 24.14 52.68 22.90Q53.74 21.65 55.46 21.65Q57 21.65 58.02 22.51Q59.05 23.38 59.05 25.17Q59.05 27.66 57.83 28.66Q56.62 29.65 55.21 29.65M50.79 70.99Q48.23 70.99 46.86 69.20Q45.48 67.41 45.48 64.91Q45.48 63.57 45.74 61.71Q45.99 59.86 46.31 58Q46.63 56.14 46.89 54.86L49.38 43.09Q49.58 42.13 49.58 41.42Q49.58 39.70 48.52 39.22Q47.46 38.74 45.67 38.74L44.84 38.74L45.42 36.05L56.87 36.05L52.52 56.59Q52.39 57.30 52.14 58.64Q51.88 59.98 51.72 61.39Q51.56 62.80 51.56 63.70Q51.56 66.96 53.67 66.96Q54.70 66.96 55.88 66.48Q57.06 66 58.28 65.30L59.43 67.15Q58.02 68.43 55.59 69.71Q53.16 70.99 50.79 70.99ZM89.77 70.99Q86.95 70.99 85.45 69.20Q83.94 67.41 83.94 64.59Q83.94 61.65 85.16 55.95L86.25 50.96Q86.44 50.13 86.76 48.75Q87.08 47.38 87.34 45.94Q87.59 44.50 87.59 43.34Q87.59 42.06 87.05 40.82Q86.50 39.57 84.65 39.57Q82.60 39.57 80.65 41.04Q78.70 42.51 77 44.82Q75.30 47.12 74.12 49.58Q72.94 52.05 72.55 53.97L69.10 70.35L63.14 70.35L68.52 44.62Q68.71 43.73 68.81 42.90Q68.90 42.06 68.90 41.74Q68.90 39.82 67.56 39.28Q66.22 38.74 64.42 38.74L63.91 38.74L64.49 36.05L76.33 36.05L74.60 44.11L75.24 44.11Q77.86 39.89 80.58 37.68Q83.30 35.47 86.89 35.47Q90.66 35.47 92.20 37.62Q93.74 39.76 93.74 42.58Q93.74 44.18 93.32 46.06Q92.90 47.95 92.58 49.62L90.92 57.17Q90.54 58.96 90.31 60.69Q90.09 62.42 90.09 63.89Q90.09 66.96 92.33 66.96Q94.18 66.96 96.42 65.49L97.58 67.34Q96.04 68.62 94.15 69.81Q92.26 70.99 89.77 70.99ZM127.85 70.99Q125.29 70.99 123.88 69.20Q122.47 67.41 122.47 64.91Q122.47 64.21 122.57 63.18Q122.66 62.16 122.79 61.14L122.28 61.14Q120.49 64.08 118.76 66.26Q117.03 68.43 114.92 69.68Q112.81 70.93 109.93 70.93Q106.15 70.93 104.62 68.78Q103.08 66.64 103.08 63.82Q103.08 62.22 103.46 60.34Q103.85 58.45 104.23 56.78L106.73 45.58Q106.92 44.69 107.11 43.38Q107.30 42.06 107.30 41.74Q107.30 39.82 105.99 39.28Q104.68 38.74 102.82 38.74L102.31 38.74L102.89 36.05L114.79 36.05L110.57 55.18Q110.18 56.91 109.74 59.22Q109.29 61.52 109.29 62.93Q109.29 64.53 109.93 65.68Q110.57 66.83 112.42 66.83Q114.15 66.83 116.01 65.52Q117.86 64.21 119.59 62.03Q121.32 59.86 122.60 57.23Q123.88 54.61 124.46 51.98L127.78 36.05L133.99 36.05L129.58 56.59Q129.38 57.30 129.16 58.64Q128.94 59.98 128.78 61.39Q128.62 62.80 128.62 63.70Q128.62 66.96 130.73 66.96Q131.82 66.96 132.71 66.61Q133.61 66.26 134.82 65.55L135.98 67.41Q134.57 68.69 132.42 69.84Q130.28 70.99 127.85 70.99ZM135.72 70.35L136.42 67.66L137.26 67.66Q138.47 67.66 139.40 67.34Q140.33 67.02 141.35 66.06Q142.38 65.10 143.91 63.25L152.10 53.33L147.94 43.34Q146.79 40.59 145.99 39.66Q145.19 38.74 143.34 38.74L142.50 38.74L143.02 36.05L151.53 36.05L156.39 48.98L164.90 36.05L172.78 36.05L172.07 38.74L171.24 38.74Q170.02 38.74 169.06 39.12Q168.10 39.50 167.08 40.50Q166.06 41.49 164.58 43.34L157.86 51.98L162.28 63.06Q163.30 65.87 164.17 66.77Q165.03 67.66 166.89 67.66L167.72 67.66L167.21 70.35L158.63 70.35L153.45 56.27L143.85 70.35L135.72 70.35ZM193.45 70.99Q184.42 70.99 179.85 66.38Q175.27 61.78 175.27 53.84Q175.27 47.63 177.26 42.22Q179.24 36.82 182.89 32.72Q186.54 28.62 191.59 26.32Q196.65 24.02 202.79 24.02Q209.58 24.02 212.94 26.06Q216.30 28.11 216.30 30.93Q216.30 33.42 214.28 34.70Q212.26 35.98 209.51 35.98Q209.51 32.21 207.59 29.81Q205.67 27.41 201.45 27.41Q197.35 27.41 193.86 29.65Q190.38 31.89 187.75 35.73Q185.13 39.57 183.69 44.50Q182.25 49.42 182.25 54.86Q182.25 60.37 185.10 63.86Q187.94 67.34 194.60 67.34Q196.39 67.34 198.38 67.09Q200.36 66.83 201.83 66.45L203.94 56.27Q204.20 55.25 204.20 54.48Q204.20 52.82 202.82 52.37Q201.45 51.92 199.59 51.92L199.02 51.92L199.59 49.23L216.62 49.23L216.04 51.92L215.78 51.92Q213.99 51.92 212.49 52.72Q210.98 53.52 210.34 56.53L207.91 68.05Q204.39 69.52 200.97 70.26Q197.54 70.99 193.45 70.99ZM246.82 70.99Q244.26 70.99 242.86 69.20Q241.45 67.41 241.45 64.91Q241.45 64.21 241.54 63.18Q241.64 62.16 241.77 61.14L241.26 61.14Q239.46 64.08 237.74 66.26Q236.01 68.43 233.90 69.68Q231.78 70.93 228.90 70.93Q225.13 70.93 223.59 68.78Q222.06 66.64 222.06 63.82Q222.06 62.22 222.44 60.34Q222.82 58.45 223.21 56.78L225.70 45.58Q225.90 44.69 226.09 43.38Q226.28 42.06 226.28 41.74Q226.28 39.82 224.97 39.28Q223.66 38.74 221.80 38.74L221.29 38.74L221.86 36.05L233.77 36.05L229.54 55.18Q229.16 56.91 228.71 59.22Q228.26 61.52 228.26 62.93Q228.26 64.53 228.90 65.68Q229.54 66.83 231.40 66.83Q233.13 66.83 234.98 65.52Q236.84 64.21 238.57 62.03Q240.30 59.86 241.58 57.23Q242.86 54.61 243.43 51.98L246.76 36.05L252.97 36.05L248.55 56.59Q248.36 57.30 248.14 58.64Q247.91 59.98 247.75 61.39Q247.59 62.80 247.59 63.70Q247.59 66.96 249.70 66.96Q250.79 66.96 251.69 66.61Q252.58 66.26 253.80 65.55L254.95 67.41Q253.54 68.69 251.40 69.84Q249.26 70.99 246.82 70.99ZM270.31 29.65Q268.71 29.65 267.72 28.78Q266.73 27.92 266.73 26.13Q266.73 24.14 267.78 22.90Q268.84 21.65 270.57 21.65Q272.10 21.65 273.13 22.51Q274.15 23.38 274.15 25.17Q274.15 27.66 272.94 28.66Q271.72 29.65 270.31 29.65M265.90 70.99Q263.34 70.99 261.96 69.20Q260.58 67.41 260.58 64.91Q260.58 63.57 260.84 61.71Q261.10 59.86 261.42 58Q261.74 56.14 261.99 54.86L264.49 43.09Q264.68 42.13 264.68 41.42Q264.68 39.70 263.62 39.22Q262.57 38.74 260.78 38.74L259.94 38.74L260.52 36.05L271.98 36.05L267.62 56.59Q267.50 57.30 267.24 58.64Q266.98 59.98 266.82 61.39Q266.66 62.80 266.66 63.70Q266.66 66.96 268.78 66.96Q269.80 66.96 270.98 66.48Q272.17 66 273.38 65.30L274.54 67.15Q273.13 68.43 270.70 69.71Q268.26 70.99 265.90 70.99ZM286.44 70.99Q283.62 70.99 281.77 69.46Q279.91 67.92 279.05 65.26Q278.18 62.61 278.18 59.28Q278.18 56.27 278.98 52.98Q279.78 49.68 281.38 46.58Q282.98 43.47 285.29 40.94Q287.59 38.42 290.60 36.91Q293.61 35.41 297.26 35.41Q299.11 35.41 300.71 35.86Q302.31 36.30 303.59 37.01Q303.72 36.18 303.91 35.06Q304.10 33.94 304.23 33.36L304.87 30.29Q305.06 29.39 305.19 28.59Q305.32 27.79 305.32 27.41Q305.32 25.49 304.01 24.94Q302.70 24.40 300.84 24.40L300.33 24.40L300.90 21.71L312.68 21.71L305.26 56.59Q305.13 57.30 304.87 58.64Q304.62 59.98 304.46 61.39Q304.30 62.80 304.30 63.70Q304.30 66.96 306.41 66.96Q307.43 66.96 308.62 66.48Q309.80 66 311.02 65.30L312.17 67.15Q311.27 67.98 309.74 68.88Q308.20 69.78 306.47 70.38Q304.74 70.99 303.14 70.99Q300.84 70.99 299.50 69.58Q298.15 68.18 298.15 65.68Q298.15 64.85 298.31 63.57Q298.47 62.29 298.79 60.69L298.41 60.69Q296.17 65.62 293.19 68.30Q290.22 70.99 286.44 70.99M288.74 66.96Q290.41 66.96 292.17 65.68Q293.93 64.40 295.50 62.22Q297.06 60.05 298.28 57.36Q299.50 54.67 300.07 51.92L302.44 40.59Q301.74 39.44 300.39 38.86Q299.05 38.29 297.58 38.29Q295.02 38.29 292.97 39.73Q290.92 41.17 289.38 43.54Q287.85 45.90 286.79 48.72Q285.74 51.54 285.22 54.38Q284.71 57.23 284.71 59.54Q284.71 63.50 285.86 65.23Q287.02 66.96 288.74 66.96ZM327.72 70.99Q324.26 70.99 321.45 69.52Q318.63 68.05 316.94 65.14Q315.24 62.22 315.24 57.74Q315.24 54.22 316.46 50.32Q317.67 46.42 320.10 43.02Q322.54 39.63 326.09 37.52Q329.64 35.41 334.31 35.41Q338.34 35.41 340.58 37.36Q342.82 39.31 342.82 42.77Q342.82 46.16 340.42 49.07Q338.02 51.98 333.83 53.78Q329.64 55.57 324.26 55.57L322.02 55.57Q321.96 56.27 321.93 56.94Q321.90 57.62 321.90 58.26Q321.90 62.42 323.69 64.69Q325.48 66.96 328.94 66.96Q332.01 66.96 334.41 65.49Q336.81 64.02 338.15 62.35Q338.79 62.80 338.79 63.95Q338.79 65.36 337.61 66.99Q336.42 68.62 333.99 69.81Q331.56 70.99 327.72 70.99M322.60 52.62L323.24 52.62Q326.95 52.62 329.90 51.38Q332.84 50.13 334.54 47.92Q336.23 45.71 336.23 42.77Q336.23 38.48 332.52 38.48Q330.66 38.48 329.10 39.73Q327.53 40.98 326.25 43.06Q324.97 45.14 324.04 47.63Q323.11 50.13 322.60 52.62Z"></path></svg>